<svg width="20" height="20" viewBox="0 0 20 20" fill="none" xmlns="http://www.w3.org/2000/svg">
<path fill-rule="evenodd" clip-rule="evenodd" d="M10 0.25C4.61522 0.25 0.25 4.61522 0.25 10C0.25 15.3848 4.61522 19.75 10 19.75C15.3848 19.75 19.75 15.3848 19.75 10C19.7443 4.61758 15.3824 0.255684 10 0.25ZM10 18.25C5.44365 18.25 1.75 14.5563 1.75 10C1.75 5.44365 5.44365 1.75 10 1.75C14.5563 1.75 18.25 5.44365 18.25 10C18.2448 14.5542 14.5542 18.2448 10 18.25ZM11.5 14.5C11.5 14.9142 11.1642 15.25 10.75 15.25C9.92157 15.25 9.25 14.5784 9.25 13.75V10C8.83579 10 8.5 9.66421 8.5 9.25C8.5 8.83579 8.83579 8.5 9.25 8.5C10.0784 8.5 10.75 9.17157 10.75 10V13.75C11.1642 13.75 11.5 14.0858 11.5 14.5ZM8.5 5.875C8.5 5.25368 9.00368 4.75 9.625 4.75C10.2463 4.75 10.75 5.25368 10.75 5.875C10.75 6.49632 10.2463 7 9.625 7C9.00368 7 8.5 6.49632 8.5 5.875Z" fill="#121417"/>
</svg>
