<svg width="18" height="18" viewBox="0 0 18 18" fill="none" xmlns="http://www.w3.org/2000/svg">
<path fill-rule="evenodd" clip-rule="evenodd" d="M9 0.875C4.51269 0.875 0.875 4.51269 0.875 9C0.875 13.4873 4.51269 17.125 9 17.125C13.4873 17.125 17.125 13.4873 17.125 9C17.1203 4.51465 13.4853 0.879737 9 0.875ZM6.93984 12.125H11.0602C10.6406 13.5578 9.9375 14.8492 9 15.8664C8.0625 14.8492 7.35938 13.5578 6.93984 12.125ZM6.65625 10.875C6.44896 9.63359 6.44896 8.36641 6.65625 7.125H11.3438C11.551 8.36641 11.551 9.63359 11.3438 10.875H6.65625ZM2.125 9C2.12446 8.36597 2.21201 7.73493 2.38516 7.125H5.38984C5.20339 8.36805 5.20339 9.63195 5.38984 10.875H2.38516C2.21201 10.2651 2.12446 9.63403 2.125 9ZM11.0602 5.875H6.93984C7.35938 4.44219 8.0625 3.15078 9 2.13359C9.9375 3.15078 10.6406 4.44219 11.0602 5.875ZM12.6102 7.125H15.6148C15.9617 8.35093 15.9617 9.64907 15.6148 10.875H12.6102C12.7966 9.63195 12.7966 8.36805 12.6102 7.125ZM15.1227 5.875H12.3547C12.0357 4.61993 11.5001 3.43019 10.7719 2.35938C12.6532 2.86494 14.2333 4.14178 15.1227 5.875ZM7.22812 2.35938C6.49992 3.43019 5.96427 4.61993 5.64531 5.875H2.87734C3.76666 4.14178 5.34682 2.86494 7.22812 2.35938ZM2.87734 12.125H5.64531C5.96427 13.3801 6.49992 14.5698 7.22812 15.6406C5.34682 15.1351 3.76666 13.8582 2.87734 12.125ZM10.7719 15.6406C11.5001 14.5698 12.0357 13.3801 12.3547 12.125H15.1227C14.2333 13.8582 12.6532 15.1351 10.7719 15.6406Z" fill="#121417"/>
</svg>
