<svg width="17" height="17" viewBox="0 0 17 17" fill="none" xmlns="http://www.w3.org/2000/svg">
<path fill-rule="evenodd" clip-rule="evenodd" d="M16.2453 10.1117C16.0819 9.948 15.8415 9.8879 15.6203 9.95547C13.1921 10.6895 10.557 10.0282 8.76324 8.23442C6.9695 6.44068 6.30811 3.80554 7.04219 1.37734C7.11033 1.15604 7.05054 0.915208 6.8868 0.751476C6.72307 0.587744 6.48224 0.527952 6.26094 0.596094C4.6133 1.10082 3.16683 2.11234 2.12734 3.48672C0.273169 5.94845 -0.0286098 9.24731 1.34813 12.0046C2.72487 14.7619 5.54311 16.5029 8.625 16.5C10.3878 16.5054 12.1036 15.9324 13.5094 14.8687C14.8838 13.8293 15.8953 12.3828 16.4 10.7352C16.4673 10.5147 16.4079 10.2751 16.2453 10.1117ZM12.7578 13.8703C10.0208 15.9319 6.18347 15.6632 3.76042 13.2403C1.33737 10.8175 1.06837 6.98019 3.12969 4.24297C3.77922 3.3852 4.61896 2.68988 5.58281 2.21172C5.5279 2.59705 5.50023 2.98578 5.5 3.375C5.50474 7.86035 9.13965 11.4953 13.625 11.5C14.015 11.4999 14.4045 11.4722 14.7906 11.4172C14.312 12.3812 13.6161 13.221 12.7578 13.8703Z" fill="#121417"/>
</svg>
